
        <svg xmlns="http://www.w3.org/2000/svg" xmlns:xlink="http://www.w3.org/1999/xlink" version="1.1" width="3161.954358317202" 
        height="706.8750375501584" viewBox="0 0 3161.954358317202 706.8750375501584">
			
			<g transform="scale(8.097717915860077) translate(10, 10)">
				<defs id="SvgjsDefs4032"></defs><g id="SvgjsG4033" featureKey="9id2mP-0" transform="matrix(1.034302673646936,0,0,1.034302673646936,8.54697543560076,-20.168902136115253)" fill="#ffffff"><polygon xmlns="http://www.w3.org/2000/svg" points="0.438,19.5 30.938,50 0.438,80.5 11.875,80.5 42.375,50 11.875,19.5 "></polygon><polygon xmlns="http://www.w3.org/2000/svg" points="19.5,19.5 50,50 19.5,80.5 30.938,80.5 61.438,50 30.938,19.5 "></polygon><polygon xmlns="http://www.w3.org/2000/svg" points="38.563,19.5 69.063,50 38.563,80.5 50,80.5 80.5,50 50,19.5 "></polygon><polygon xmlns="http://www.w3.org/2000/svg" points="57.625,19.5 88.125,50 57.625,80.5 69.063,80.5 99.563,50 69.063,19.5 "></polygon></g><g id="SvgjsG4034" featureKey="zfl5BF-0" transform="matrix(3.0552437959845364,0,0,3.0552437959845364,118.7226583942509,-18.33146131905345)" fill="#ffffff"><path d="M7.7 13.9 l-3.7 0 l0 3.9 l3.7 0 c1 0 1.6 -0.6 1.6 -1.4 l0 -1.1 c0 -0.8 -0.6 -1.4 -1.6 -1.4 z M9.5 12.5 l0 0.2 s2.4 0.3 2.4 2.9 l0 1.4 c0 1.6 -1.4 3 -3.4 3 l-7.1 0 l0 -14 l6.5 0 c2 0 3.4 1.4 3.4 3 l0 1.3 c0 1.7 -1.8 2.2 -1.8 2.2 z M7.1 8.2 l-3.1 0 l0 3.5 l3.1 0 c1 0 1.6 -0.6 1.6 -1.4 l0 -0.7 c0 -0.8 -0.6 -1.4 -1.6 -1.4 z M24.299999999999997 11.7 c0 2.5 -2.3 2.9 -2.3 2.9 l2.7 4.3 l0 1.1 l-2.6 0 l-2.7 -5.2 l-2.8 0 l0 5.2 l-2.6 0 l0 -14 l7 0 c2 0 3.3 1.3 3.3 3.1 l0 2.6 z M16.6 8.2 l0 4.4 l3.7 0 c0.8 0 1.4 -0.6 1.4 -1.3 l0 -1.8 c0 -0.7 -0.6 -1.3 -1.4 -1.3 l-3.7 0 z M26.7 20 l0 -14 l9.6 0 l0 1.5 l-0.7 0.7 l-6.3 0 l0 3.6 l5.1 0 l0 2.2 l-5.1 0 l0 3.8 l7 0 l0 2.2 l-9.6 0 z M40.300000000000004 9.5 l0 7 c0 0.7 0.6 1.3 1.4 1.3 l3.7 0 l0 -5.5 l2.6 0 l0 7.7 l-7 0 c-2 0 -3.3 -1.3 -3.3 -3.1 l0 -7.8 c0 -1.8 1.3 -3.1 3.3 -3.1 l6.5 0 l0 1.5 l-0.7 0.7 l-5.1 0 c-0.8 0 -1.4 0.6 -1.4 1.3 z M56 8.2 l0 11.8 l-2.6 0 l0 -11.8 l-4 0 l0 -2.2 l10.6 0 l0 1.5 l-0.7 0.7 l-3.3 0 z M61.6 20 l0 -14 l9.6 0 l0 1.5 l-0.7 0.7 l-6.3 0 l0 3.6 l5.1 0 l0 2.2 l-5.1 0 l0 3.8 l7 0 l0 2.2 l-9.6 0 z M75.2 9.5 l0 7 c0 0.7 0.6 1.3 1.4 1.3 l5.8 0 l0 2.2 l-6.5 0 c-2 0 -3.3 -1.3 -3.3 -3.1 l0 -7.8 c0 -1.8 1.3 -3.1 3.3 -3.1 l6.5 0 l0 1.5 l-0.7 0.7 l-5.1 0 c-0.8 0 -1.4 0.6 -1.4 1.3 z"></path></g><g id="SvgjsG4035" featureKey="pYXC9J-0" transform="matrix(0.7646558505432929,0,0,0.7646558505432929,122.58708582429888,48.17672074728353)" fill="#ffffff"><path d="M0.54 19.7 l0 -2.82 c0.24 0.06 0.54 0.12 0.88 0.16 c0.34 0.06 0.7 0.1 1.08 0.12 s0.76 0.04 1.16 0.06 s0.78 0.04 1.12 0.04 c0.94 0 1.6 -0.06 2 -0.16 c0.38 -0.1 0.58 -0.28 0.58 -0.56 c0 -0.24 -0.18 -0.42 -0.36 -0.56 c-0.66 -0.44 -1.44 -0.62 -2.22 -0.8 c-2.2 -0.44 -4.22 -1.32 -4.22 -3.84 c0 -2.98 2.82 -3.68 5.24 -3.68 c1.34 0 2.7 0.14 4 0.46 l0 2.82 c-0.2 -0.06 -0.46 -0.1 -0.78 -0.16 c-0.34 -0.04 -0.68 -0.08 -1.06 -0.12 c-0.78 -0.08 -1.52 -0.12 -2.3 -0.12 c-0.44 0 -1.36 0 -1.78 0.16 c-0.28 0.1 -0.46 0.22 -0.46 0.54 c0 0.16 0.04 0.3 0.12 0.42 c0.08 0.14 0.22 0.24 0.4 0.34 c0.54 0.3 1.24 0.48 1.84 0.62 c0.5 0.12 1 0.26 1.52 0.4 c1.76 0.48 2.92 1.46 2.92 3.34 c0 3.1 -3.08 3.76 -5.56 3.76 c-1.36 0 -2.78 -0.1 -4.12 -0.42 z M20.304499999999997 16.58 l0 3.08 c-1.24 0.34 -2.48 0.48 -3.76 0.48 c-3.76 0 -6.28 -2.58 -6.28 -6.24 c0 -3.76 2.62 -6.24 6.26 -6.24 c1.26 0 2.58 0.1 3.78 0.48 l0 3.08 c-0.98 -0.48 -2.52 -0.66 -3.6 -0.66 c-2.44 0 -3.44 1 -3.44 3.32 c0 2.46 1.18 3.36 3.46 3.36 c1.02 0 2.68 -0.16 3.58 -0.66 z M28.249 7.76 l3 0 l0 12.24 l-3 0 l0 -4.72 l-4.4 0 l0 4.72 l-3 0 l0 -12.24 l3 0 l0 4.74 l4.4 0 l0 -4.74 z M45.0935 7.76 l2.92 0 l-2.26 12.24 l-4.44 0 l-1.6 -7.14 l-1.7 7.14 l-4.68 0 l-1.98 -12.24 l3.06 0 l1.38 9.16 l1.8 -7.14 l4.26 0 l1.72 7.14 z M48.118 7.76 l9.1 0 l0 2.78 l-6.1 0 l0 1.96 l4.9 0 l0 2.78 l-4.9 0 l0 1.94 l6.1 0 l0 2.78 l-9.1 0 l0 -12.24 z M57.7025 7.76 l3 0 l0 12.24 l-3 0 l0 -12.24 z M61.167 19.7 l0 -2.82 c0.24 0.06 0.54 0.12 0.88 0.16 c0.34 0.06 0.7 0.1 1.08 0.12 s0.76 0.04 1.16 0.06 s0.78 0.04 1.12 0.04 c0.94 0 1.6 -0.06 2 -0.16 c0.38 -0.1 0.58 -0.28 0.58 -0.56 c0 -0.24 -0.18 -0.42 -0.36 -0.56 c-0.66 -0.44 -1.44 -0.62 -2.22 -0.8 c-2.2 -0.44 -4.22 -1.32 -4.22 -3.84 c0 -2.98 2.82 -3.68 5.24 -3.68 c1.34 0 2.7 0.14 4 0.46 l0 2.82 c-0.2 -0.06 -0.46 -0.1 -0.78 -0.16 c-0.34 -0.04 -0.68 -0.08 -1.06 -0.12 c-0.78 -0.08 -1.52 -0.12 -2.3 -0.12 c-0.44 0 -1.36 0 -1.78 0.16 c-0.28 0.1 -0.46 0.22 -0.46 0.54 c0 0.16 0.04 0.3 0.12 0.42 c0.08 0.14 0.22 0.24 0.4 0.34 c0.54 0.3 1.24 0.48 1.84 0.62 c0.5 0.12 1 0.26 1.52 0.4 c1.76 0.48 2.92 1.46 2.92 3.34 c0 3.1 -3.08 3.76 -5.56 3.76 c-1.36 0 -2.78 -0.1 -4.12 -0.42 z M70.71150000000002 19.7 l0 -2.82 c0.24 0.06 0.54 0.12 0.88 0.16 c0.34 0.06 0.7 0.1 1.08 0.12 s0.76 0.04 1.16 0.06 s0.78 0.04 1.12 0.04 c0.94 0 1.6 -0.06 2 -0.16 c0.38 -0.1 0.58 -0.28 0.58 -0.56 c0 -0.24 -0.18 -0.42 -0.36 -0.56 c-0.66 -0.44 -1.44 -0.62 -2.22 -0.8 c-2.2 -0.44 -4.22 -1.32 -4.22 -3.84 c0 -2.98 2.82 -3.68 5.24 -3.68 c1.34 0 2.7 0.14 4 0.46 l0 2.82 c-0.2 -0.06 -0.46 -0.1 -0.78 -0.16 c-0.34 -0.04 -0.68 -0.08 -1.06 -0.12 c-0.78 -0.08 -1.52 -0.12 -2.3 -0.12 c-0.44 0 -1.36 0 -1.78 0.16 c-0.28 0.1 -0.46 0.22 -0.46 0.54 c0 0.16 0.04 0.3 0.12 0.42 c0.08 0.14 0.22 0.24 0.4 0.34 c0.54 0.3 1.24 0.48 1.84 0.62 c0.5 0.12 1 0.26 1.52 0.4 c1.76 0.48 2.92 1.46 2.92 3.34 c0 3.1 -3.08 3.76 -5.56 3.76 c-1.36 0 -2.78 -0.1 -4.12 -0.42 z M80.13600000000001 7.76 l10.2 0 l0 2.78 l-3.6 0 l0 9.46 l-3 0 l0 -9.46 l-3.6 0 l0 -2.78 z M90.7005 7.76 l9.1 0 l0 2.78 l-6.1 0 l0 1.96 l4.9 0 l0 2.78 l-4.9 0 l0 1.94 l6.1 0 l0 2.78 l-9.1 0 l0 -12.24 z M109.92500000000001 16.58 l0 3.08 c-1.24 0.34 -2.48 0.48 -3.76 0.48 c-3.76 0 -6.28 -2.58 -6.28 -6.24 c0 -3.76 2.62 -6.24 6.26 -6.24 c1.26 0 2.58 0.1 3.78 0.48 l0 3.08 c-0.98 -0.48 -2.52 -0.66 -3.6 -0.66 c-2.44 0 -3.44 1 -3.44 3.32 c0 2.46 1.18 3.36 3.46 3.36 c1.02 0 2.68 -0.16 3.58 -0.66 z M117.86950000000002 7.76 l3 0 l0 12.24 l-3 0 l0 -4.72 l-4.4 0 l0 4.72 l-3 0 l0 -12.24 l3 0 l0 4.74 l4.4 0 l0 -4.74 z M129.75400000000002 7.76 l3 0 l0 12.24 l-3 0 l-4.8 -7.16 l0 7.16 l-3 0 l0 -12.24 l3 0 l4.8 7.16 l0 -7.16 z M133.8385 7.76 l3 0 l0 12.24 l-3 0 l0 -12.24 z M137.903 7.76 l3 0 l0 5.74 l3.94 -5.74 l3.72 0 l-4.28 6.12 l4.44 6.12 l-3.68 0 l-4.14 -5.76 l0 5.76 l-3 0 l0 -12.24 z M152.252 5 l1.8 0 l0 20 l-1.8 0 l0 -20 z M159.021 20 l0 -12.24 l5.8 0 c2.28 0 4.22 1.72 4.22 4.02 c0 2.32 -2 4.02 -4.22 4.02 l-2.8 0 l0 4.2 l-3 0 z M164.821 10.54 l-2.8 0 l0 2.48 l2.8 0 c0.7 0 1.22 -0.54 1.22 -1.24 s-0.52 -1.24 -1.22 -1.24 z M172.3455 10.58 l0 2.92 l2.8 0 c0.92 0 1.46 -0.54 1.46 -1.46 s-0.54 -1.46 -1.46 -1.46 l-2.8 0 z M176.8855 15.48 c0.56 0.76 1.12 1.52 1.7 2.26 c0.56 0.74 1.12 1.5 1.68 2.26 l-3.66 0 c-0.72 -0.96 -1.42 -1.92 -2.12 -2.88 c-0.7 -0.94 -1.42 -1.9 -2.14 -2.86 l0 5.74 l-3 0 l0 -12.24 l5.8 0 c2.28 0 4.22 1.74 4.22 4.04 c0 1.62 -1 3.04 -2.48 3.68 z M186.11 17.32 c2.18 0 3.3 -1.4 3.3 -3.44 c0 -2.16 -1.2 -3.44 -3.3 -3.44 c-2.2 0 -3.3 1.4 -3.3 3.44 c0 2.12 1.22 3.44 3.3 3.44 z M186.11 20.1 c-3.76 0 -6.3 -2.56 -6.3 -6.22 c0 -3.78 2.66 -6.22 6.3 -6.22 c3.78 0 6.3 2.54 6.3 6.22 c0 3.8 -2.64 6.22 -6.3 6.22 z M195.5945 7.76 l3 0 l0 7.24 c0 3.14 -2.44 5.1 -5.4 5.1 c-0.22 0 -0.4 0 -0.5 -0.02 s-0.24 -0.06 -0.38 -0.08 l0 -2.78 c0.26 0.06 0.54 0.1 0.8 0.1 c1.54 0 2.48 -0.72 2.48 -2.32 l0 -7.24 z M199.519 7.76 l9.1 0 l0 2.78 l-6.1 0 l0 1.96 l4.9 0 l0 2.78 l-4.9 0 l0 1.94 l6.1 0 l0 2.78 l-9.1 0 l0 -12.24 z M209.1235 7.76 l3 0 l0 5.74 l3.94 -5.74 l3.72 0 l-4.28 6.12 l4.44 6.12 l-3.68 0 l-4.14 -5.76 l0 5.76 l-3 0 l0 -12.24 z M218.86800000000002 7.76 l10.2 0 l0 2.78 l-3.6 0 l0 9.46 l-3 0 l0 -9.46 l-3.6 0 l0 -2.78 z M229.43250000000003 7.76 l9.1 0 l0 2.78 l-6.1 0 l0 1.96 l4.9 0 l0 2.78 l-4.9 0 l0 1.94 l6.1 0 l0 2.78 l-9.1 0 l0 -12.24 z M242.92150000000004 5 l1.8 0 l0 20 l-1.8 0 l0 -20 z M249.09050000000002 19.7 l0 -2.82 c0.24 0.06 0.54 0.12 0.88 0.16 c0.34 0.06 0.7 0.1 1.08 0.12 s0.76 0.04 1.16 0.06 s0.78 0.04 1.12 0.04 c0.94 0 1.6 -0.06 2 -0.16 c0.38 -0.1 0.58 -0.28 0.58 -0.56 c0 -0.24 -0.18 -0.42 -0.36 -0.56 c-0.66 -0.44 -1.44 -0.62 -2.22 -0.8 c-2.2 -0.44 -4.22 -1.32 -4.22 -3.84 c0 -2.98 2.82 -3.68 5.24 -3.68 c1.34 0 2.7 0.14 4 0.46 l0 2.82 c-0.2 -0.06 -0.46 -0.1 -0.78 -0.16 c-0.34 -0.04 -0.68 -0.08 -1.06 -0.12 c-0.78 -0.08 -1.52 -0.12 -2.3 -0.12 c-0.44 0 -1.36 0 -1.78 0.16 c-0.28 0.1 -0.46 0.22 -0.46 0.54 c0 0.16 0.04 0.3 0.12 0.42 c0.08 0.14 0.22 0.24 0.4 0.34 c0.54 0.3 1.24 0.48 1.84 0.62 c0.5 0.12 1 0.26 1.52 0.4 c1.76 0.48 2.92 1.46 2.92 3.34 c0 3.1 -3.08 3.76 -5.56 3.76 c-1.36 0 -2.78 -0.1 -4.12 -0.42 z M259.235 7.76 l9.1 0 l0 2.78 l-6.1 0 l0 1.96 l4.9 0 l0 2.78 l-4.9 0 l0 1.94 l6.1 0 l0 2.78 l-9.1 0 l0 -12.24 z M271.83950000000004 10.58 l0 2.92 l2.8 0 c0.92 0 1.46 -0.54 1.46 -1.46 s-0.54 -1.46 -1.46 -1.46 l-2.8 0 z M276.37950000000006 15.48 c0.56 0.76 1.12 1.52 1.7 2.26 c0.56 0.74 1.12 1.5 1.68 2.26 l-3.66 0 c-0.72 -0.96 -1.42 -1.92 -2.12 -2.88 c-0.7 -0.94 -1.42 -1.9 -2.14 -2.86 l0 5.74 l-3 0 l0 -12.24 l5.8 0 c2.28 0 4.22 1.74 4.22 4.04 c0 1.62 -1 3.04 -2.48 3.68 z M287.9240000000001 7.76 l3.28 0 l-4.9 12.24 l-3 0 l-4.9 -12.24 l3.26 0 l3.14 8.82 z M291.2685000000001 7.76 l3 0 l0 12.24 l-3 0 l0 -12.24 z M304.9530000000001 16.58 l0 3.08 c-1.24 0.34 -2.48 0.48 -3.76 0.48 c-3.76 0 -6.28 -2.58 -6.28 -6.24 c0 -3.76 2.62 -6.24 6.26 -6.24 c1.26 0 2.58 0.1 3.78 0.48 l0 3.08 c-0.98 -0.48 -2.52 -0.66 -3.6 -0.66 c-2.44 0 -3.44 1 -3.44 3.32 c0 2.46 1.18 3.36 3.46 3.36 c1.02 0 2.68 -0.16 3.58 -0.66 z M305.49750000000006 7.76 l9.1 0 l0 2.78 l-6.1 0 l0 1.96 l4.9 0 l0 2.78 l-4.9 0 l0 1.94 l6.1 0 l0 2.78 l-9.1 0 l0 -12.24 z M314.5020000000001 19.7 l0 -2.82 c0.24 0.06 0.54 0.12 0.88 0.16 c0.34 0.06 0.7 0.1 1.08 0.12 s0.76 0.04 1.16 0.06 s0.78 0.04 1.12 0.04 c0.94 0 1.6 -0.06 2 -0.16 c0.38 -0.1 0.58 -0.28 0.58 -0.56 c0 -0.24 -0.18 -0.42 -0.36 -0.56 c-0.66 -0.44 -1.44 -0.62 -2.22 -0.8 c-2.2 -0.44 -4.22 -1.32 -4.22 -3.84 c0 -2.98 2.82 -3.68 5.24 -3.68 c1.34 0 2.7 0.14 4 0.46 l0 2.82 c-0.2 -0.06 -0.46 -0.1 -0.78 -0.16 c-0.34 -0.04 -0.68 -0.08 -1.06 -0.12 c-0.78 -0.08 -1.52 -0.12 -2.3 -0.12 c-0.44 0 -1.36 0 -1.78 0.16 c-0.28 0.1 -0.46 0.22 -0.46 0.54 c0 0.16 0.04 0.3 0.12 0.42 c0.08 0.14 0.22 0.24 0.4 0.34 c0.54 0.3 1.24 0.48 1.84 0.62 c0.5 0.12 1 0.26 1.52 0.4 c1.76 0.48 2.92 1.46 2.92 3.34 c0 3.1 -3.08 3.76 -5.56 3.76 c-1.36 0 -2.78 -0.1 -4.12 -0.42 z"></path></g>
			</g>
		</svg>
	