<svg width="167" height="159" viewBox="0 0 167 159" fill="none" xmlns="http://www.w3.org/2000/svg">
<g id="Icon" clip-path="url(#clip0_14_46)">
<path id="Vector" d="M76.8571 93.4122L61.6401 82.625L58.4577 80.3718C60.914 83.8287 68.3757 94.369 71.4964 98.7672L76.8571 93.4122Z" fill="white"/>
<path id="Vector_2" d="M71.5118 49.4453C68.3912 53.8435 60.8986 64.3839 58.4577 67.8407C62.6597 64.8623 59.1065 67.3932 76.888 54.8158L71.5273 49.4607L71.5118 49.4453Z" fill="white"/>
<path id="Vector_3" d="M56.0014 15.3553C56.0014 10.7255 52.7263 6.62053 46.7631 3.76553C29.9241 -4.29018 0.0617946 1.06486 0.0617946 15.3398L0.0308973 63.4272C0.0308973 65.0322 0.0308973 77.4244 0.0308973 77.4244C0.0308973 79.4306 0 126.391 0 127.425C0 132.055 3.27512 136.16 9.2383 139.015C26.0773 147.071 55.9396 141.731 55.9396 127.456C55.9705 75.7422 55.9705 84.2918 55.9705 77.8873V70.31C55.9705 70.31 56.0014 15.5096 56.0014 15.3553ZM48.3543 127.456C48.3543 130.543 40.2592 135.203 27.9621 135.203C15.7113 135.203 7.58529 130.527 7.58529 127.425L7.60074 88.1499C18.4457 94.3228 37.5402 94.3074 48.3697 88.1653L48.3543 127.441V127.456ZM48.3852 77.4552C48.3852 80.5417 40.2901 85.2023 27.993 85.2023C15.7885 85.2023 7.61619 80.5726 7.61619 77.4244V74.1527C18.4303 80.2948 37.5093 80.3411 48.3852 74.1681V77.4398V77.4552ZM48.3852 63.458C48.3852 66.5445 40.2901 71.2051 27.993 71.2051C15.7731 71.2051 7.63164 66.56 7.61619 63.4426L7.63164 26.0499C18.4611 32.2074 37.5402 32.2229 48.4006 26.0653V63.4426L48.3852 63.458ZM28.0239 23.1023C15.7422 23.1023 7.64709 18.4263 7.64709 15.3398C7.64709 11.9447 17.287 6.88288 30.7428 7.66993C41.1089 8.28723 48.1689 12.2688 48.4161 15.2164C48.6633 18.3337 40.4291 23.1178 28.0393 23.1178L28.0239 23.1023Z" fill="white"/>
<path id="Vector_4" d="M55.9705 70.3101V77.8874C56.0477 77.8874 115.556 77.9182 115.633 77.9182V70.3409C115.633 70.3409 56.8047 70.3101 55.9705 70.3101Z" fill="white"/>
<path id="Vector_5" d="M144.584 103.15C142.838 100.542 140.475 98.2271 137.617 96.329V66.6988C137.617 61.2511 133.198 56.822 127.745 56.822H111.122C106.04 56.822 101.838 60.6647 101.297 65.6031C105.283 65.6031 105.128 65.6031 109.098 65.6031C109.485 64.8777 110.257 64.3839 111.122 64.3839H115.633V70.3408V77.9181V83.4275H123.218V64.3993H127.73C128.996 64.3993 130.031 65.4333 130.031 66.6988V91.9925V96.6067H108.82V82.6559C106.086 82.6559 103.985 82.6559 101.235 82.6559V96.2981C94.6539 100.665 90.7763 107.209 90.7763 114.153C90.7763 116.623 91.5796 118.953 93.0627 120.882C90.112 124.292 90.0657 129.215 92.6456 132.657C90.112 136.037 90.1738 140.635 92.6456 143.907C87.9956 150.126 92.4911 158.954 100.2 158.954H116.962L166.985 158.984L167.015 103.15H144.615H144.584ZM123.836 97.5481H130.016V106.838H123.836V97.5481ZM115.865 97.5481H122.894V106.838H115.865V97.5481ZM108.805 97.5481H114.907V106.838H108.805V97.5481ZM159.368 151.423C126.571 151.407 135.361 151.423 116.931 151.407C112.837 151.407 105.205 151.407 100.169 151.407C99.5048 151.407 99.0722 151.068 98.8714 150.867C97.7128 149.71 98.547 147.734 100.169 147.734H116.931C116.931 142.086 116.931 147.966 116.931 140.157C104.062 140.157 104.587 140.157 100.169 140.157C98.547 140.157 97.7128 138.182 98.8714 137.024C99.5203 136.376 100.2 136.484 101.189 136.484C110.334 136.484 101.451 136.484 116.946 136.484C116.946 135.219 116.946 129.092 116.946 128.907C116.946 128.907 102.934 128.907 101.189 128.907C100.2 128.907 99.5357 129.015 98.8869 128.367C97.7282 127.225 98.547 125.234 100.185 125.234C105.128 125.234 110.937 125.234 116.946 125.234V117.657C116.946 117.657 110.906 117.657 105.236 117.657L105.005 117.579V117.657C101.498 117.657 101.606 117.657 101.204 117.61C99.9837 117.394 99.0259 116.561 98.5933 115.511C97.9599 113.984 98.3925 110.048 101.189 106.483C101.189 107.548 101.189 107.61 101.189 107.872C101.189 109.755 102.44 112.379 104.989 113.69C107.013 114.724 106.194 114.462 130.588 114.462C134.465 114.462 137.57 111.329 137.57 107.487V106.468C138.714 108.196 137.91 106.576 140.104 110.758H159.368L159.353 151.453L159.368 151.423Z" fill="white"/>
</g>
<defs>
<clipPath id="clip0_14_46">
<rect width="167" height="159" fill="white"/>
</clipPath>
</defs>
</svg>
